<svg width="429" height="428" viewBox="0 0 429 428" fill="none" xmlns="http://www.w3.org/2000/svg">
<path d="M0.333496 199.333V398.667H15.0002H29.6668V413.333V428H229H428.334V228.667V29.3333H413.667H399V14.6666V-2.23219e-05H199.667H0.333496V199.333ZM389.667 18.6666V29.3333H209.667H29.6668L29.4002 209.6L29.0002 390L19.0002 389.867L9.00016 389.733L8.60016 198.933L8.3335 7.99998H199H389.667V18.6666ZM389.667 214C389.667 353.333 389.267 389.333 388.067 389.333C387.134 389.333 308.067 389.333 212.334 389.333H38.3335L37.9335 214L37.6668 38.6666H213.667H389.667V214ZM420.334 229.333V420H229H37.6668V409.333V398.667H218.334H399V218.667V38.6666H409.667H420.334V229.333Z" fill="#212529"/>
<path d="M64.3335 218.667V289.333H77.6668H91.0002L91.2668 243.867L91.6668 198.533L110.733 231.867L129.8 265.333H140.867H151.934L171.134 231.867L190.334 198.267L190.734 243.867L191 289.467L204.067 289.067L217 288.667V218.667V148.667L202.334 148.267L187.667 148L165.267 186.933C153 208.4 142.467 226.8 141.8 227.733C141.134 228.8 133 215.733 117.533 188.8L94.3335 148.133L79.4002 148H64.3335V218.667Z" fill="#212529"/>
<path d="M235.533 149.733C235.267 150.667 235.133 157.733 235.267 165.467L235.667 179.333L285.267 179.733L334.867 180L337.533 183.467C339.133 185.467 340.333 188.933 340.333 191.333C340.333 193.733 339.133 197.2 337.533 199.2L334.867 202.667L285.267 202.933L235.667 203.333V246V288.667H287.667H339.667L345.933 285.067C359.133 277.2 366.2 263.733 366.067 246C366.067 237.6 365.4 233.467 362.733 226.933L359.267 218.667L362.733 210.267C365.4 203.867 366.067 199.733 366.067 191.333C366.2 173.6 359.133 160.133 345.933 152.267L339.667 148.667L287.933 148.267C245.267 148 236.2 148.133 235.533 149.733ZM337.533 238.133C339.133 240.133 340.333 243.6 340.333 246C340.333 248.4 339.133 251.867 337.533 253.867L334.867 257.333H298.2H261.667V246V234.667H298.2H334.867L337.533 238.133Z" fill="#212529"/>
</svg>
